<mxfile host="65bd71144e">
    <diagram id="3Ub-huxJdI9-qCHbUzcz" name="Page-1">
        <mxGraphModel dx="3093" dy="928" grid="1" gridSize="10" guides="1" tooltips="1" connect="1" arrows="1" fold="1" page="1" pageScale="1" pageWidth="1169" pageHeight="827" math="0" shadow="0">
            <root>
                <mxCell id="0"/>
                <mxCell id="1" parent="0"/>
                <mxCell id="15" style="edgeStyle=orthogonalEdgeStyle;html=1;elbow=vertical;startArrow=classic;startFill=1;strokeWidth=6;fillColor=#e3c800;strokeColor=#B09500;" edge="1" parent="1" source="2" target="14">
                    <mxGeometry relative="1" as="geometry"/>
                </mxCell>
                <mxCell id="2" value="SPA (React App.)" style="whiteSpace=wrap;html=1;fillColor=#6a00ff;fontColor=#ffffff;strokeColor=#3700CC;" vertex="1" parent="1">
                    <mxGeometry x="480" y="180" width="120" height="60" as="geometry"/>
                </mxCell>
                <mxCell id="4" style="edgeStyle=none;html=1;" edge="1" parent="1" source="3" target="2">
                    <mxGeometry relative="1" as="geometry"/>
                </mxCell>
                <mxCell id="8" style="edgeStyle=orthogonalEdgeStyle;html=1;entryX=0.5;entryY=0;entryDx=0;entryDy=0;elbow=vertical;startArrow=none;" edge="1" parent="1" source="10" target="7">
                    <mxGeometry relative="1" as="geometry"/>
                </mxCell>
                <mxCell id="9" style="edgeStyle=orthogonalEdgeStyle;html=1;elbow=vertical;" edge="1" parent="1" source="3" target="6">
                    <mxGeometry relative="1" as="geometry"/>
                </mxCell>
                <mxCell id="3" value="HttpClient" style="whiteSpace=wrap;html=1;fillColor=#76608a;fontColor=#ffffff;strokeColor=#432D57;" vertex="1" parent="1">
                    <mxGeometry x="480" y="354" width="120" height="60" as="geometry"/>
                </mxCell>
                <mxCell id="18" value="Generated by&lt;br&gt;server" style="edgeStyle=orthogonalEdgeStyle;html=1;strokeWidth=3;startArrow=none;startFill=0;elbow=vertical;fillColor=#f0a30a;strokeColor=#BD7000;" edge="1" parent="1" source="5" target="14">
                    <mxGeometry relative="1" as="geometry"/>
                </mxCell>
                <mxCell id="27" style="edgeStyle=orthogonalEdgeStyle;html=1;entryX=0.5;entryY=1;entryDx=0;entryDy=0;dashed=1;strokeWidth=2;startArrow=none;startFill=0;endArrow=classic;endFill=1;elbow=vertical;fillColor=#f0a30a;strokeColor=#BD7000;" edge="1" parent="1" source="5" target="25">
                    <mxGeometry relative="1" as="geometry">
                        <Array as="points">
                            <mxPoint x="780" y="590"/>
                        </Array>
                    </mxGeometry>
                </mxCell>
                <mxCell id="28" value="Validates&lt;br&gt;token" style="edgeLabel;html=1;align=center;verticalAlign=middle;resizable=0;points=[];" vertex="1" connectable="0" parent="27">
                    <mxGeometry x="0.226" y="-3" relative="1" as="geometry">
                        <mxPoint as="offset"/>
                    </mxGeometry>
                </mxCell>
                <mxCell id="5" value="Server" style="whiteSpace=wrap;html=1;fillColor=#f0a30a;fontColor=#000000;strokeColor=#BD7000;" vertex="1" parent="1">
                    <mxGeometry x="340" y="560" width="400" height="60" as="geometry"/>
                </mxCell>
                <mxCell id="6" value="GET /places" style="whiteSpace=wrap;html=1;fillColor=#e3c800;fontColor=#000000;strokeColor=#B09500;" vertex="1" parent="1">
                    <mxGeometry x="340" y="500" width="120" height="60" as="geometry"/>
                </mxCell>
                <mxCell id="7" value="POST /places" style="whiteSpace=wrap;html=1;fillColor=#e3c800;fontColor=#000000;strokeColor=#B09500;" vertex="1" parent="1">
                    <mxGeometry x="620" y="500" width="120" height="60" as="geometry"/>
                </mxCell>
                <mxCell id="12" value="" style="endArrow=none;dashed=1;html=1;elbow=vertical;" edge="1" parent="1">
                    <mxGeometry width="50" height="50" relative="1" as="geometry">
                        <mxPoint x="250" y="680" as="sourcePoint"/>
                        <mxPoint x="250" y="120" as="targetPoint"/>
                    </mxGeometry>
                </mxCell>
                <mxCell id="13" value="" style="endArrow=none;dashed=1;html=1;elbow=vertical;" edge="1" parent="1">
                    <mxGeometry width="50" height="50" relative="1" as="geometry">
                        <mxPoint x="820" y="680" as="sourcePoint"/>
                        <mxPoint x="820" y="120" as="targetPoint"/>
                    </mxGeometry>
                </mxCell>
                <mxCell id="26" style="edgeStyle=orthogonalEdgeStyle;html=1;entryX=1;entryY=0.5;entryDx=0;entryDy=0;dashed=1;strokeWidth=1;startArrow=none;startFill=0;elbow=vertical;endArrow=none;endFill=0;" edge="1" parent="1" source="14" target="25">
                    <mxGeometry relative="1" as="geometry"/>
                </mxCell>
                <mxCell id="14" value="Token&lt;br&gt;(Cookie / localStorage)" style="whiteSpace=wrap;html=1;fillColor=#76608a;fontColor=#ffffff;strokeColor=#432D57;" vertex="1" parent="1">
                    <mxGeometry x="880" y="180" width="120" height="60" as="geometry"/>
                </mxCell>
                <mxCell id="17" style="edgeStyle=orthogonalEdgeStyle;html=1;strokeWidth=6;startArrow=classic;startFill=1;elbow=vertical;fillColor=#e3c800;strokeColor=#B09500;" edge="1" parent="1" source="16" target="2">
                    <mxGeometry relative="1" as="geometry"/>
                </mxCell>
                <mxCell id="21" style="edgeStyle=orthogonalEdgeStyle;html=1;strokeWidth=3;startArrow=classic;startFill=1;elbow=vertical;dashed=1;fillColor=#d0cee2;strokeColor=#56517e;" edge="1" parent="1" source="16" target="19">
                    <mxGeometry relative="1" as="geometry"/>
                </mxCell>
                <mxCell id="16" value="Session ID&lt;br&gt;(Cookie)" style="whiteSpace=wrap;html=1;fillColor=#76608a;fontColor=#ffffff;strokeColor=#432D57;" vertex="1" parent="1">
                    <mxGeometry x="60" y="180" width="120" height="60" as="geometry"/>
                </mxCell>
                <mxCell id="19" value="Session" style="whiteSpace=wrap;html=1;fillColor=#e3c800;fontColor=#000000;strokeColor=#B09500;" vertex="1" parent="1">
                    <mxGeometry x="60" y="560" width="120" height="60" as="geometry"/>
                </mxCell>
                <mxCell id="20" style="edgeStyle=orthogonalEdgeStyle;html=1;strokeWidth=6;startArrow=classic;startFill=1;elbow=vertical;fillColor=#e3c800;strokeColor=#B09500;entryX=0;entryY=0.5;entryDx=0;entryDy=0;" edge="1" parent="1" target="5">
                    <mxGeometry relative="1" as="geometry">
                        <mxPoint x="180" y="590" as="sourcePoint"/>
                        <mxPoint x="480" y="589.5" as="targetPoint"/>
                    </mxGeometry>
                </mxCell>
                <mxCell id="22" value="Traditional setup&lt;br&gt;- a session is established on the server&lt;br&gt;- a session ID is sent and saved in the Cookie" style="rounded=1;whiteSpace=wrap;html=1;fillStyle=auto;strokeWidth=3;" vertex="1" parent="1">
                    <mxGeometry x="-110" y="670" width="290" height="100" as="geometry"/>
                </mxCell>
                <mxCell id="23" value="SPA Backend ( =&amp;gt; APIs) &lt;br&gt;- server is stateless and decoupled from frontend&lt;br&gt;- no Session created in the BE&lt;br&gt;- token is used for Authentication" style="rounded=1;whiteSpace=wrap;html=1;fillStyle=auto;strokeWidth=3;" vertex="1" parent="1">
                    <mxGeometry x="880" y="680" width="290" height="100" as="geometry"/>
                </mxCell>
                <mxCell id="24" value="Attached to&lt;br&gt;requests" style="whiteSpace=wrap;html=1;fillStyle=auto;strokeWidth=1;" vertex="1" parent="1">
                    <mxGeometry x="720" y="330" width="120" height="40" as="geometry"/>
                </mxCell>
                <mxCell id="25" value="Token" style="whiteSpace=wrap;html=1;fillStyle=auto;strokeWidth=1;fillColor=#76608a;fontColor=#ffffff;strokeColor=#432D57;" vertex="1" parent="1">
                    <mxGeometry x="720" y="380" width="120" height="30" as="geometry"/>
                </mxCell>
                <mxCell id="30" value="" style="edgeStyle=orthogonalEdgeStyle;html=1;entryX=0.5;entryY=0;entryDx=0;entryDy=0;elbow=vertical;endArrow=none;" edge="1" parent="1" source="3" target="10">
                    <mxGeometry relative="1" as="geometry">
                        <mxPoint x="600" y="384" as="sourcePoint"/>
                        <mxPoint x="680" y="500" as="targetPoint"/>
                    </mxGeometry>
                </mxCell>
                <mxCell id="10" value="PROTECTED" style="whiteSpace=wrap;html=1;fillColor=#e51400;strokeColor=#B20000;fillStyle=auto;strokeWidth=3;fontColor=#ffffff;" vertex="1" parent="1">
                    <mxGeometry x="620" y="440" width="120" height="30" as="geometry"/>
                </mxCell>
            </root>
        </mxGraphModel>
    </diagram>
</mxfile>